<?xml version="1.0" encoding="utf-8"?>
<!-- Generator: Adobe Illustrator 16.0.0, SVG Export Plug-In . SVG Version: 6.00 Build 0)  -->
<!DOCTYPE svg PUBLIC "-//W3C//DTD SVG 1.0//EN" "http://www.w3.org/TR/2001/REC-SVG-20010904/DTD/svg10.dtd">
<svg version="1.0" xmlns="http://www.w3.org/2000/svg" xmlns:xlink="http://www.w3.org/1999/xlink" x="0px" y="0px" width="1157px"
	 height="900px" viewBox="0 0 1157 900" enable-background="new 0 0 1157 900" xml:space="preserve">
<g id="Capa_1">
	<g>
		<g>
			<linearGradient id="SVGID_1_" gradientUnits="userSpaceOnUse" x1="281.2568" y1="603.6377" x2="881.3587" y2="257.1687">
				<stop  offset="0" style="stop-color:#9A8048"/>
				<stop  offset="0.2959" style="stop-color:#BDA35F"/>
				<stop  offset="0.3367" style="stop-color:#C7BB9F"/>
				<stop  offset="0.852" style="stop-color:#BDA35F"/>
				<stop  offset="1" style="stop-color:#BDA35F"/>
			</linearGradient>
			<path fill="url(#SVGID_1_)" d="M928.111,430.405c0,16.217-23.506,30.582-25.727,46.186
				c-2.277,15.989,16.215,36.362,11.762,51.543c-4.529,15.445-31.131,22.598-37.734,37.033c-6.674,14.595,5.293,39.379-3.322,52.761
				c-8.67,13.46-36.205,12.824-46.654,24.873c-10.473,12.071-5.943,39.234-18.016,49.702c-12.049,10.453-38.293,2.128-51.754,10.796
				c-13.381,8.616-16.662,35.965-31.254,42.64c-14.434,6.604-37.25-8.78-52.695-4.253c-15.18,4.451-26.064,29.757-42.055,32.032
				c-15.602,2.227-33.135-18.977-49.354-18.977c-16.218,0-33.749,21.203-49.354,18.977c-15.99-2.275-26.874-27.581-42.059-32.032
				c-15.444-4.527-38.261,10.857-52.693,4.253c-14.595-6.675-17.871-34.026-31.254-42.643c-13.462-8.671-39.706-0.345-51.756-10.793
				c-12.071-10.47-7.544-37.633-18.014-49.707c-10.451-12.05-37.983-11.408-46.651-24.87c-8.619-13.38,3.351-38.171-3.327-52.765
				c-6.601-14.434-33.206-21.582-37.734-37.029c-4.45-15.179,14.044-35.554,11.765-51.541
				c-2.222-15.604-25.726-29.969-25.726-46.186c0-16.218,23.502-30.582,25.726-46.184c2.279-15.99-16.215-36.366-11.762-51.547
				c4.53-15.444,31.131-22.597,37.734-37.032c6.675-14.595-5.293-39.38,3.324-52.761c8.668-13.462,36.203-12.823,46.654-24.873
				c10.47-12.073,5.942-39.235,18.014-49.706c12.05-10.45,38.291-2.124,51.753-10.792c13.383-8.616,16.662-35.968,31.257-42.643
				c14.433-6.602,37.249,8.782,52.696,4.255c15.179-4.451,26.063-29.755,42.053-32.034c15.604-2.224,33.136,18.978,49.354,18.978
				c16.219,0,33.75-21.202,49.354-18.978c15.99,2.279,26.875,27.583,42.055,32.034c15.447,4.527,38.264-10.857,52.697-4.255
				c14.594,6.676,17.871,34.028,31.254,42.644c13.459,8.668,39.705,0.344,51.756,10.793c12.07,10.471,7.543,37.633,18.014,49.706
				c10.451,12.05,37.982,11.411,46.652,24.873c8.615,13.381-3.352,38.168,3.326,52.763c6.6,14.433,33.203,21.582,37.734,37.029
				c4.447,15.178-14.047,35.554-11.766,51.544C904.605,399.823,928.111,414.187,928.111,430.405z"/>
		</g>
		<g>
			<polygon fill="#282828" points="219.914,503.416 278.885,544.018 278.885,503.744 			"/>
		</g>
		<g>
			<polygon fill="#282828" points="937.086,503.416 878.115,544.018 878.115,503.744 			"/>
		</g>
		<g>
			<linearGradient id="SVGID_2_" gradientUnits="userSpaceOnUse" x1="278.4492" y1="600.8301" x2="878.5505" y2="254.3615">
				<stop  offset="0" style="stop-color:#CCAA60"/>
				<stop  offset="0.2959" style="stop-color:#EFCF78"/>
				<stop  offset="0.3367" style="stop-color:#F9EAC7"/>
				<stop  offset="0.852" style="stop-color:#EFCF78"/>
				<stop  offset="1" style="stop-color:#EFCF78"/>
			</linearGradient>
			<path fill="url(#SVGID_2_)" d="M925.303,427.597c0,16.217-23.504,30.582-25.727,46.185c-2.277,15.99,16.217,36.363,11.762,51.544
				c-4.529,15.444-31.129,22.597-37.732,37.032c-6.676,14.595,5.291,39.379-3.324,52.763c-8.668,13.458-36.205,12.822-46.654,24.872
				c-10.471,12.071-5.943,39.233-18.016,49.701c-12.049,10.454-38.293,2.128-51.754,10.797c-13.379,8.616-16.66,35.965-31.254,42.64
				c-14.434,6.604-37.25-8.781-52.693-4.253c-15.182,4.45-26.066,29.757-42.057,32.032c-15.6,2.227-33.135-18.977-49.354-18.977
				c-16.218,0-33.749,21.203-49.353,18.977c-15.99-2.275-26.875-27.582-42.059-32.032c-15.445-4.528-38.261,10.856-52.693,4.253
				c-14.595-6.675-17.872-34.027-31.254-42.644c-13.462-8.671-39.706-0.345-51.756-10.793c-12.071-10.47-7.544-37.632-18.014-49.707
				c-10.451-12.05-37.984-11.408-46.652-24.87c-8.619-13.38,3.351-38.169-3.326-52.764c-6.601-14.434-33.207-21.583-37.734-37.029
				c-4.45-15.179,14.043-35.555,11.765-51.542c-2.222-15.604-25.726-29.968-25.726-46.185c0-16.218,23.502-30.583,25.726-46.184
				c2.278-15.99-16.215-36.366-11.762-51.547c4.53-15.444,31.131-22.596,37.734-37.032c6.674-14.595-5.293-39.379,3.323-52.761
				c8.668-13.462,36.204-12.823,46.654-24.873c10.47-12.073,5.943-39.235,18.015-49.706c12.05-10.449,38.291-2.124,51.753-10.792
				c13.382-8.616,16.661-35.968,31.256-42.643c14.434-6.602,37.249,8.782,52.696,4.255c15.179-4.451,26.063-29.755,42.054-32.034
				c15.604-2.224,33.135,18.978,49.353,18.978c16.219,0,33.75-21.202,49.354-18.978c15.99,2.279,26.875,27.583,42.057,32.034
				c15.447,4.527,38.262-10.857,52.695-4.255c14.594,6.676,17.873,34.027,31.254,42.644c13.459,8.669,39.707,0.345,51.754,10.794
				c12.072,10.47,7.545,37.632,18.016,49.705c10.451,12.05,37.984,11.411,46.652,24.873c8.615,13.381-3.352,38.168,3.326,52.763
				c6.602,14.433,33.205,21.582,37.734,37.029c4.447,15.178-14.045,35.554-11.766,51.544
				C901.799,397.015,925.303,411.379,925.303,427.597z"/>
		</g>
		<path opacity="0.8" fill="#333333" d="M578.5,120.108c-169.822,0-307.488,137.666-307.488,307.489
			c0,169.819,137.666,307.488,307.488,307.488c169.826,0,307.488-137.669,307.488-307.488
			C885.988,257.774,748.326,120.108,578.5,120.108z M578.5,724.53c-163.995,0-296.933-132.944-296.933-296.933
			c0-163.993,132.938-296.934,296.933-296.934c163.996,0,296.934,132.941,296.934,296.934
			C875.434,591.586,742.496,724.53,578.5,724.53z"/>
		<g>
			<g>
				<linearGradient id="SVGID_3_" gradientUnits="userSpaceOnUse" x1="428.9131" y1="513.96" x2="728.0864" y2="341.2322">
					<stop  offset="0.0816" style="stop-color:#D1CFCB"/>
					<stop  offset="0.4541" style="stop-color:#EDEAE5"/>
					<stop  offset="1" style="stop-color:#EDEAE5"/>
				</linearGradient>
				<circle fill="url(#SVGID_3_)" cx="578.5" cy="427.597" r="172.699"/>
			</g>
		</g>
		<g opacity="0.5">
			<linearGradient id="SVGID_4_" gradientUnits="userSpaceOnUse" x1="405.3008" y1="427.5967" x2="751.6992" y2="427.5967">
				<stop  offset="0.0816" style="stop-color:#191919"/>
				<stop  offset="0.4541" style="stop-color:#333333"/>
				<stop  offset="1" style="stop-color:#333333"/>
			</linearGradient>
			<circle fill="none" stroke="url(#SVGID_4_)" stroke-miterlimit="10" cx="578.5" cy="427.597" r="172.699"/>
		</g>
		<linearGradient id="SVGID_5_" gradientUnits="userSpaceOnUse" x1="301.6348" y1="427.5967" x2="855.3652" y2="427.5967">
			<stop  offset="0.0816" style="stop-color:#191919"/>
			<stop  offset="0.4541" style="stop-color:#333333"/>
			<stop  offset="1" style="stop-color:#333333"/>
		</linearGradient>
		<path fill="url(#SVGID_5_)" d="M578.5,150.731c-152.91,0-276.865,123.958-276.865,276.866
			c0,152.905,123.955,276.865,276.865,276.865c152.912,0,276.865-123.96,276.865-276.865
			C855.365,274.689,731.412,150.731,578.5,150.731z M578.5,620.761c-106.684,0-193.165-86.483-193.165-193.164
			c0-106.681,86.481-193.165,193.165-193.165s193.166,86.484,193.166,193.165C771.666,534.277,685.184,620.761,578.5,620.761z"/>
		<linearGradient id="SVGID_6_" gradientUnits="userSpaceOnUse" x1="314.666" y1="643.4805" x2="840.617" y2="339.8225">
			<stop  offset="0.0816" style="stop-color:#191919"/>
			<stop  offset="0.4541" style="stop-color:#333333"/>
			<stop  offset="1" style="stop-color:#333333"/>
		</linearGradient>
		<path opacity="0.5" fill="url(#SVGID_6_)" d="M908.316,457.081H248.684c4.292,5.502,7.931,11.02,8.74,16.701
			c2.177,15.272-14.551,34.536-12.176,49.463c103.189-6.928,215.58-10.747,333.252-10.747c117.67,0,230.061,3.823,333.254,10.747
			c2.371-14.929-14.355-34.188-12.178-49.463C900.387,468.101,904.025,462.583,908.316,457.081z"/>
		<linearGradient id="SVGID_7_" gradientUnits="userSpaceOnUse" x1="360.9009" y1="428.7466" x2="804.8535" y2="428.7466">
			<stop  offset="0.0816" style="stop-color:#D1CFCB"/>
			<stop  offset="0.4541" style="stop-color:#EDEAE5"/>
			<stop  offset="1" style="stop-color:#EDEAE5"/>
		</linearGradient>
		<path fill="url(#SVGID_7_)" d="M760.801,327.566l6.293-4.166l-12.42-18.763l11.971-7.922l9.787,14.781l6.057-4.012l-9.783-14.781
			l11.736-7.769l12.42,18.76l6.264-4.146l-17.672-26.694l-42.32,28.021L760.801,327.566z M735.549,291.356l5.277-5.394
			L724.74,270.23l10.039-10.264l12.672,12.393l5.08-5.194l-12.674-12.393l9.842-10.066l16.086,15.732l5.252-5.37l-22.887-22.383
			l-35.488,36.289L735.549,291.356z M460.238,198.245l4.569,54.339l6.578-3.243c0.713-0.353,1.221-0.848,1.517-1.492
			c0.297-0.642,0.409-1.245,0.34-1.811l-1.182-10.964l18.858-9.299l7.98,7.61c0.478,0.443,1.045,0.731,1.697,0.865
			s1.347,0.02,2.082-0.342l6.549-3.229l-40.331-36.705L460.238,198.245z M472.79,208.455l13.007,12.41l-14.512,7.158l-1.896-17.813
			c-0.071-0.827-0.189-1.771-0.361-2.835c-0.174-1.063-0.377-2.202-0.609-3.417c0.82,0.926,1.609,1.769,2.364,2.533
			C471.537,207.252,472.206,207.907,472.79,208.455z M420.544,274.379c2.41,1.305,4.908,2.067,7.497,2.292
			c2.589,0.226,5.208-0.121,7.854-1.028c2.646-0.908,5.199-2.427,7.661-4.549c2.463-2.128,4.339-4.432,5.625-6.917
			c1.286-2.484,2.013-5.029,2.18-7.628c0.165-2.603-0.222-5.19-1.16-7.765c-0.938-2.573-2.394-5.003-4.365-7.289l-19.859-23.014
			l-7.149,6.169l19.859,23.013c1.271,1.471,2.216,2.971,2.842,4.503c0.625,1.53,0.921,3.038,0.888,4.519
			c-0.035,1.481-0.397,2.923-1.091,4.325c-0.691,1.401-1.728,2.699-3.11,3.892c-1.382,1.19-2.816,2.029-4.303,2.506
			c-1.486,0.48-2.967,0.62-4.437,0.422c-1.471-0.201-2.918-0.721-4.339-1.563c-1.423-0.845-2.77-2.001-4.039-3.472l-19.838-22.987
			l-7.146,6.17l19.86,23.013C415.945,271.275,418.136,273.074,420.544,274.379z M372.798,316.523
			c3.12,2.111,6.356,3.532,9.705,4.262c3.351,0.729,6.611,0.795,9.784,0.203c3.17-0.592,6.162-1.815,8.973-3.675
			c2.812-1.854,5.252-4.311,7.327-7.374c1.166-1.725,2.164-3.393,2.99-5.01c0.825-1.618,1.499-3.203,2.016-4.761
			c0.518-1.558,0.883-3.104,1.091-4.646c0.208-1.541,0.287-3.104,0.232-4.695l-17.002-11.518l-9.466,13.98l4.418,2.995
			c0.405,0.274,0.847,0.362,1.327,0.261c0.477-0.102,0.886-0.404,1.229-0.908l3.562-5.26l7.644,5.178
			c-0.239,1.563-0.642,3.104-1.207,4.629s-1.445,3.17-2.641,4.931c-1.353,1.997-2.942,3.606-4.771,4.826
			c-1.829,1.218-3.807,1.999-5.932,2.342c-2.123,0.34-4.36,0.211-6.708-0.389c-2.35-0.604-4.736-1.722-7.157-3.362
			c-2.246-1.524-4.064-3.219-5.455-5.095c-1.387-1.87-2.33-3.839-2.826-5.899c-0.5-2.06-0.529-4.166-0.091-6.315
			c0.436-2.147,1.357-4.258,2.762-6.332c0.866-1.278,1.716-2.348,2.556-3.208c0.836-0.859,1.656-1.591,2.457-2.191
			c0.804-0.604,1.609-1.102,2.416-1.502c0.809-0.4,1.606-0.785,2.394-1.155c0.64-0.274,1.116-0.645,1.429-1.111
			c0.499-0.734,0.541-1.568,0.126-2.501l-2.01-4.667c-2.808,0.642-5.572,1.874-8.287,3.691c-2.718,1.821-5.235,4.448-7.558,7.876
			c-2.271,3.351-3.795,6.729-4.572,10.13c-0.778,3.403-0.857,6.691-0.238,9.866c0.62,3.176,1.9,6.17,3.84,8.978
			C367.091,311.91,369.642,314.383,372.798,316.523z M692.238,254.3l22.797-36.456l12.945,8.095l4.113-6.577l-33.957-21.235
			l-4.115,6.577l13.008,8.134l-22.801,36.458L692.238,254.3z M537.52,202.309c1.623-0.915,3.021-1.972,4.192-3.174
			c1.171-1.201,2.093-2.506,2.767-3.915c0.673-1.408,1.101-2.908,1.281-4.5c0.182-1.592,0.096-3.224-0.255-4.896
			c-0.441-2.106-1.206-3.961-2.295-5.562c-1.089-1.601-2.537-2.869-4.347-3.805c-1.811-0.936-3.999-1.5-6.56-1.692
			c-2.564-0.193-5.54,0.066-8.929,0.776l-15.151,3.174l10.409,49.678l9.242-1.936l-4.067-19.412l3.949-0.827
			c0.916-0.192,1.637-0.211,2.158-0.058c0.523,0.154,1.042,0.487,1.555,1.001l13.777,13.718c0.513,0.514,1.086,0.872,1.714,1.075
			c0.628,0.203,1.344,0.22,2.145,0.052l8.314-1.742l-16.28-15.739C540.031,203.467,538.825,202.729,537.52,202.309z
			 M536.721,192.003c-0.191,1.141-0.625,2.182-1.3,3.124c-0.674,0.943-1.615,1.767-2.816,2.473
			c-1.203,0.707-2.676,1.242-4.414,1.607l-5.773,1.209l-3.455-16.491l5.91-1.238c3.411-0.716,6.09-0.57,8.035,0.432
			c1.941,1.004,3.178,2.766,3.707,5.284C536.878,189.664,536.913,190.863,536.721,192.003z M572.015,219.266
			c0.567-0.421,0.957-0.897,1.168-1.427l4.221-10.186l21.007,0.882l3.354,10.504c0.209,0.618,0.568,1.142,1.076,1.573
			c0.508,0.432,1.172,0.665,1.992,0.699l7.295,0.306l-17.793-51.548l-9.645-0.405l-22.048,49.875l7.33,0.309
			C570.765,219.88,571.447,219.687,572.015,219.266z M586.98,184.549c0.338-0.758,0.686-1.645,1.045-2.661
			c0.355-1.015,0.727-2.111,1.102-3.291c0.277,1.207,0.564,2.325,0.861,3.356c0.295,1.031,0.57,1.926,0.816,2.686l5.465,17.128
			l-16.168-0.679L586.98,184.549z M638.828,196.557c0.184-0.58,0.373-1.226,0.564-1.938c0.193-0.711,0.367-1.436,0.529-2.17
			l14.957,40.288c0.262,0.723,0.59,1.27,0.986,1.643c0.395,0.373,0.949,0.673,1.666,0.9l4.645,1.489l15.486-48.336l-7.92-2.539
			l-9.414,29.383c-0.209,0.646-0.414,1.348-0.619,2.104c-0.207,0.758-0.391,1.542-0.553,2.349l-15.014-40.453
			c-0.145-0.391-0.287-0.713-0.428-0.967c-0.141-0.253-0.299-0.464-0.48-0.632c-0.178-0.168-0.396-0.313-0.652-0.432
			c-0.258-0.118-0.586-0.243-0.986-0.371l-4.715-1.51l-15.484,48.336l7.922,2.54L638.828,196.557z M711.684,599.165l-4.18-6.537
			l-33.746,21.565l4.176,6.537l12.924-8.259l23.154,36.234l7.957-5.085l-23.152-36.234L711.684,599.165z M657.049,621.238
			l9.779,29.264c0.213,0.646,0.463,1.332,0.742,2.067c0.281,0.729,0.598,1.469,0.947,2.216l-36.027-23.749
			c-0.348-0.229-0.652-0.405-0.916-0.526c-0.262-0.123-0.516-0.197-0.758-0.23c-0.246-0.027-0.506-0.016-0.785,0.041
			c-0.277,0.059-0.615,0.151-1.016,0.283l-4.693,1.568l16.084,48.144l7.891-2.638l-9.877-29.563
			c-0.191-0.578-0.424-1.212-0.689-1.897c-0.268-0.691-0.553-1.377-0.857-2.067l35.881,23.655c0.639,0.428,1.225,0.674,1.766,0.74
			c0.539,0.065,1.166-0.02,1.875-0.258l4.629-1.544l-16.084-48.142L657.049,621.238z M551.132,638.809
			c-1.311-1.559-3.112-2.921-5.402-4.086c-2.292-1.163-5.139-2.068-8.542-2.718l-15.203-2.902l-9.514,49.858l9.274,1.77
			l3.716-19.479l3.966,0.754c0.919,0.176,1.59,0.437,2.016,0.776c0.422,0.346,0.771,0.85,1.048,1.525l7.437,17.961
			c0.277,0.676,0.667,1.224,1.168,1.654c0.502,0.43,1.155,0.722,1.959,0.875l8.345,1.591l-8.971-20.793
			c-0.611-1.403-1.442-2.55-2.486-3.441c1.851-0.217,3.551-0.655,5.092-1.313c1.544-0.658,2.898-1.509,4.062-2.55
			c1.162-1.042,2.134-2.26,2.912-3.661c0.778-1.402,1.33-2.938,1.65-4.615c0.403-2.117,0.412-4.121,0.022-6.018
			S552.439,640.371,551.132,638.809z M544.457,648.971c-0.241,1.265-0.669,2.387-1.286,3.365c-0.614,0.979-1.415,1.771-2.402,2.383
			c-0.984,0.609-2.169,1.009-3.551,1.196c-1.382,0.191-2.945,0.118-4.692-0.214l-5.794-1.108l3.159-16.547l5.929,1.13
			c3.425,0.652,5.841,1.817,7.251,3.493C544.477,644.343,544.94,646.442,544.457,648.971z M798.541,551.112l-12.33,18.819
			l-12.008-7.864l9.713-14.827l-6.082-3.981l-9.709,14.827l-11.775-7.712l12.326-18.822l-6.283-4.114l-17.539,26.779l42.459,27.809
			l17.541-26.778L798.541,551.112z M751.965,610.086l-10.113-10.19l12.578-12.486l-5.117-5.159l-12.582,12.49l-9.916-9.991
			l15.969-15.85l-5.289-5.332l-22.721,22.55l35.754,36.025l22.723-22.549l-5.318-5.359L751.965,610.086z M585.797,636.021
			l-17.013,51.809l7.325-0.417c0.792-0.044,1.45-0.308,1.974-0.781c0.524-0.476,0.864-0.985,1.021-1.534l3.197-10.555l20.99-1.198
			l4.377,10.125c0.266,0.592,0.674,1.08,1.225,1.458c0.549,0.379,1.232,0.543,2.049,0.5l7.289-0.417l-22.793-49.54L585.797,636.021z
			 M584.338,667.745l5.211-17.138c0.258-0.786,0.52-1.705,0.773-2.75c0.258-1.048,0.516-2.174,0.775-3.384
			c0.396,1.174,0.791,2.257,1.188,3.253c0.395,0.997,0.758,1.861,1.078,2.594l7.131,16.503L584.338,667.745z M407.825,562.14
			c0.285,0.962,0.477,1.892,0.57,2.785c0.096,0.899,0.181,1.78,0.255,2.649c0.036,0.691,0.22,1.267,0.546,1.723
			c0.519,0.724,1.283,1.052,2.304,0.986l5.073-0.269c0.373-2.857,0.176-5.874-0.59-9.055c-0.765-3.179-2.355-6.45-4.767-9.817
			c-2.358-3.291-4.996-5.894-7.919-7.799c-2.921-1.909-5.979-3.127-9.171-3.645c-3.191-0.52-6.444-0.356-9.754,0.488
			c-3.311,0.845-6.513,2.377-9.614,4.599c-3.063,2.193-5.518,4.736-7.363,7.626c-1.843,2.888-3.039,5.926-3.581,9.107
			c-0.544,3.178-0.432,6.408,0.337,9.688c0.765,3.28,2.224,6.422,4.376,9.431c1.213,1.689,2.436,3.206,3.664,4.541
			c1.231,1.335,2.484,2.518,3.768,3.541c1.281,1.025,2.608,1.903,3.979,2.635c1.371,0.729,2.813,1.344,4.325,1.846l16.692-11.96
			l-9.832-13.722l-4.335,3.104c-0.4,0.285-0.637,0.672-0.708,1.154s0.069,0.971,0.425,1.467l3.7,5.164l-7.506,5.377
			c-1.385-0.768-2.692-1.678-3.925-2.739c-1.233-1.059-2.471-2.453-3.71-4.185c-1.404-1.961-2.36-4.009-2.871-6.147
			c-0.51-2.141-0.557-4.265-0.14-6.377c0.414-2.111,1.311-4.162,2.689-6.159c1.377-1.993,3.256-3.842,5.633-5.544
			c2.208-1.58,4.432-2.699,6.67-3.352c2.237-0.653,4.409-0.856,6.516-0.609c2.103,0.248,4.089,0.949,5.953,2.106
			c1.862,1.151,3.524,2.748,4.983,4.783c0.899,1.256,1.606,2.427,2.122,3.51C407.14,560.156,407.54,561.18,407.825,562.14z
			 M446.365,652.043l6.645,3.109c0.719,0.335,1.424,0.42,2.109,0.252c0.688-0.17,1.229-0.461,1.626-0.869l7.823-7.771l19.043,8.909
			l-0.954,10.986c-0.044,0.649,0.085,1.272,0.387,1.864c0.304,0.599,0.825,1.067,1.568,1.415l6.611,3.094l3.453-54.424l-8.746-4.092
			L446.365,652.043z M486.085,627.899c-0.124,1.067-0.217,1.999-0.28,2.797l-1.56,17.91l-14.658-6.858l12.722-12.608
			c0.603-0.571,1.264-1.257,1.988-2.058c0.721-0.795,1.483-1.668,2.287-2.61C486.375,625.691,486.208,626.835,486.085,627.899z
			 M455.097,596.056l-19.314,23.475c-1.233,1.499-2.55,2.687-3.954,3.564c-1.401,0.875-2.838,1.42-4.303,1.641
			c-1.467,0.216-2.95,0.104-4.447-0.341c-1.497-0.444-2.951-1.248-4.36-2.407c-1.41-1.161-2.479-2.43-3.203-3.817
			c-0.724-1.382-1.113-2.817-1.166-4.3c-0.052-1.481,0.214-2.994,0.807-4.542c0.587-1.547,1.5-3.065,2.733-4.568l19.293-23.446
			l-7.292-6l-19.314,23.474c-1.916,2.331-3.315,4.797-4.192,7.393c-0.881,2.595-1.21,5.189-0.99,7.778
			c0.217,2.588,0.998,5.108,2.345,7.563c1.344,2.455,3.271,4.717,5.783,6.781c2.513,2.066,5.101,3.524,7.769,4.369
			c2.666,0.847,5.296,1.133,7.888,0.855c2.591-0.277,5.076-1.098,7.456-2.457c2.378-1.362,4.525-3.209,6.441-5.539l19.314-23.475
			L455.097,596.056z"/>
		<g>
			<linearGradient id="SVGID_8_" gradientUnits="userSpaceOnUse" x1="912.9131" y1="511.6641" x2="413.0112" y2="388.0927">
				<stop  offset="0" style="stop-color:#CCAA60"/>
				<stop  offset="0.2959" style="stop-color:#EFCF78"/>
				<stop  offset="0.3367" style="stop-color:#F9EAC7"/>
				<stop  offset="0.852" style="stop-color:#EFCF78"/>
				<stop  offset="1" style="stop-color:#EFCF78"/>
			</linearGradient>
			<path fill="url(#SVGID_8_)" d="M212.041,429c0,25.997,2.727,51,7.873,76h717.172c5.146-25,7.873-50.003,7.873-76
				c0-25.998-2.727-53-7.873-76H219.914C214.768,376,212.041,403.002,212.041,429z"/>
		</g>
		<linearGradient id="SVGID_9_" gradientUnits="userSpaceOnUse" x1="490.395" y1="426.6089" x2="666.6045" y2="426.6089">
			<stop  offset="0.0816" style="stop-color:#191919"/>
			<stop  offset="0.4541" style="stop-color:#333333"/>
			<stop  offset="1" style="stop-color:#333333"/>
		</linearGradient>
		<path fill="url(#SVGID_9_)" d="M528.647,527.01l-6.707-0.971c-2.41-0.351-5.266-2.43-6.346-4.612l-2.994-6.076
			c-1.081-2.184-2.847-2.184-3.928,0l-2.994,6.076c-1.081,2.183-3.936,4.262-6.346,4.612l-6.705,0.971
			c-2.41,0.352-2.956,2.029-1.212,3.729l4.854,4.731c1.744,1.699,2.833,5.06,2.424,7.456l-1.146,6.681
			c-0.412,2.401,1.017,3.438,3.17,2.303l5.997-3.153c2.155-1.131,5.688-1.131,7.843,0l5.998,3.153
			c2.152,1.135,3.584,0.099,3.17-2.303l-1.146-6.681c-0.408-2.396,0.68-5.757,2.425-7.456l4.854-4.731
			C531.602,529.039,531.059,527.361,528.647,527.01z M528.647,313.594l-6.707-0.971c-2.41-0.351-5.266-2.429-6.346-4.613
			l-2.994-6.076c-1.081-2.184-2.847-2.184-3.928,0l-2.994,6.076c-1.081,2.184-3.936,4.262-6.346,4.613l-6.705,0.971
			c-2.41,0.351-2.956,2.029-1.212,3.729l4.854,4.73c1.744,1.7,2.833,5.06,2.424,7.457l-1.146,6.68
			c-0.412,2.402,1.017,3.439,3.17,2.304l5.997-3.154c2.155-1.13,5.688-1.13,7.843,0l5.998,3.154c2.152,1.135,3.584,0.099,3.17-2.304
			l-1.146-6.68c-0.408-2.396,0.68-5.756,2.425-7.457l4.854-4.73C531.602,315.623,531.059,313.945,528.647,313.594z M664.373,527.01
			l-6.707-0.971c-2.412-0.351-5.266-2.43-6.348-4.612l-2.994-6.076c-1.08-2.184-2.846-2.184-3.926,0l-2.994,6.076
			c-1.082,2.183-3.936,4.262-6.348,4.612l-6.705,0.971c-2.408,0.352-2.955,2.029-1.211,3.729l4.854,4.731
			c1.744,1.699,2.834,5.06,2.424,7.456l-1.146,6.681c-0.41,2.401,1.018,3.438,3.172,2.303l5.996-3.153
			c2.156-1.131,5.688-1.131,7.844,0l5.996,3.153c2.154,1.135,3.586,0.099,3.172-2.303l-1.146-6.681
			c-0.41-2.396,0.68-5.757,2.424-7.456l4.854-4.731C667.326,529.039,666.783,527.361,664.373,527.01z M631.994,322.054
			c1.744,1.7,2.834,5.06,2.424,7.457l-1.146,6.68c-0.41,2.402,1.018,3.439,3.172,2.304l5.996-3.154c2.156-1.13,5.688-1.13,7.844,0
			l5.996,3.154c2.154,1.135,3.586,0.099,3.172-2.304l-1.146-6.68c-0.41-2.396,0.68-5.756,2.424-7.457l4.854-4.73
			c1.744-1.7,1.201-3.378-1.209-3.729l-6.707-0.971c-2.412-0.351-5.266-2.429-6.348-4.613l-2.994-6.076
			c-1.08-2.184-2.846-2.184-3.926,0l-2.994,6.076c-1.082,2.184-3.936,4.262-6.348,4.613l-6.705,0.971
			c-2.408,0.351-2.955,2.029-1.211,3.729L631.994,322.054z M604.004,290.301l-9.494-1.379c-3.416-0.496-7.459-3.436-8.986-6.53
			l-4.244-8.605c-1.528-3.093-4.029-3.093-5.558,0l-4.245,8.605c-1.526,3.094-5.568,6.034-8.986,6.53l-9.493,1.379
			c-3.417,0.497-4.188,2.874-1.717,5.282l6.872,6.697c2.471,2.408,4.015,7.163,3.434,10.563l-1.623,9.456
			c-0.582,3.4,1.439,4.87,4.491,3.266l8.493-4.468c3.052-1.601,8.055-1.601,11.105,0l8.494,4.468
			c3.053,1.604,5.072,0.134,4.492-3.266l-1.625-9.456c-0.58-3.4,0.963-8.155,3.434-10.563l6.873-6.697
			C608.191,293.175,607.422,290.797,604.004,290.301z M604.004,545.839l-9.494-1.38c-3.416-0.496-7.459-3.436-8.986-6.528
			l-4.244-8.605c-1.528-3.095-4.029-3.095-5.558,0l-4.245,8.605c-1.526,3.093-5.568,6.032-8.986,6.528l-9.493,1.38
			c-3.417,0.497-4.188,2.874-1.717,5.281l6.872,6.696c2.471,2.409,4.015,7.163,3.434,10.563l-1.623,9.456
			c-0.582,3.4,1.439,4.87,4.491,3.266l8.493-4.467c3.052-1.601,8.055-1.601,11.105,0l8.494,4.467
			c3.053,1.604,5.072,0.135,4.492-3.266l-1.625-9.456c-0.58-3.4,0.963-8.154,3.434-10.563l6.873-6.696
			C608.191,548.713,607.422,546.336,604.004,545.839z"/>
		<linearGradient id="SVGID_10_" gradientUnits="userSpaceOnUse" x1="280.2021" y1="601.1777" x2="876.878" y2="256.6868">
			<stop  offset="0" style="stop-color:#CCAA60"/>
			<stop  offset="0.2959" style="stop-color:#EFCF78"/>
			<stop  offset="0.3367" style="stop-color:#F9EAC7"/>
			<stop  offset="0.852" style="stop-color:#EFCF78"/>
			<stop  offset="1" style="stop-color:#EFCF78"/>
		</linearGradient>
		<path fill="url(#SVGID_10_)" d="M212.041,429c0,21.889,1.956,42.751,5.639,63.884H939.32c3.684-21.133,5.639-41.995,5.639-63.884
			c0-21.56-1.902-44.019-5.479-63.884h-721.96C213.944,384.982,212.041,407.441,212.041,429z"/>
		<g>
			<path opacity="0.7" fill="#FFFFFF" d="M408.653,404.951c-3.153-3.233-6.943-5.767-11.375-7.605
				c-4.427-1.837-9.335-2.759-14.715-2.759c-5.387,0-10.301,0.911-14.749,2.734c-4.442,1.821-8.248,4.358-11.419,7.604
				c-3.164,3.25-5.621,7.097-7.36,11.545c-1.738,4.448-2.604,9.28-2.604,14.495c0,5.219,0.866,10.053,2.604,14.498
				c1.739,4.446,4.196,8.296,7.36,11.542c3.171,3.254,6.977,5.786,11.419,7.608c4.448,1.82,9.362,2.73,14.749,2.73
				c5.38,0,10.288-0.91,14.715-2.73c4.432-1.822,8.222-4.354,11.375-7.608c3.148-3.246,5.594-7.096,7.333-11.542
				c1.738-4.445,2.61-9.279,2.61-14.498c0-5.215-0.872-10.047-2.61-14.495C414.247,412.023,411.802,408.184,408.653,404.951z
				 M403.459,441.478c-1.036,3.102-2.522,5.729-4.459,7.877c-1.936,2.149-4.289,3.798-7.063,4.946
				c-2.771,1.149-5.896,1.726-9.373,1.726c-3.483,0-6.615-0.576-9.406-1.726c-2.786-1.148-5.161-2.797-7.113-4.946
				c-1.953-2.147-3.45-4.775-4.504-7.877c-1.048-3.102-1.573-6.606-1.573-10.511c0-3.905,0.525-7.41,1.573-10.508
				c1.054-3.102,2.551-5.737,4.504-7.903c1.952-2.164,4.327-3.823,7.113-4.969c2.791-1.149,5.923-1.723,9.406-1.723
				c3.477,0,6.603,0.574,9.373,1.723c2.774,1.146,5.128,2.805,7.063,4.969c1.937,2.167,3.423,4.802,4.459,7.903
				c1.031,3.099,1.552,6.603,1.552,10.508C405.011,434.871,404.49,438.376,403.459,441.478z M876.994,433.232
				c-0.816-1.113-1.668-2.035-2.533-2.757c-0.873-0.721-1.85-1.281-2.93-1.675c0.791-0.393,1.525-0.9,2.215-1.525
				c0.688-0.622,1.41-1.393,2.168-2.313l23.973-29.584h-11.418c-1.383,0-2.523,0.203-3.424,0.614
				c-0.904,0.412-1.766,1.141-2.588,2.191l-19.641,24.859c-0.586,0.756-1.295,1.305-2.117,1.65c-0.816,0.345-1.854,0.515-3.1,0.515
				h-3.104v-29.88h-13.24v71.231h13.24v-31.309h4.186c1.508,0,2.676,0.188,3.5,0.563c0.816,0.379,1.557,0.993,2.209,1.849
				l20.133,26.288c0.527,0.854,1.174,1.5,1.947,1.941c0.775,0.444,1.949,0.667,3.521,0.667h11.715L876.994,433.232z
				 M324.426,395.427c-0.428,0.033-0.811,0.115-1.157,0.247c-0.345,0.132-0.657,0.343-0.938,0.639
				c-0.274,0.293-0.549,0.688-0.812,1.182l-21.066,39.428c-0.56,1.054-1.086,2.15-1.574,3.3c-0.494,1.148-0.971,2.313-1.432,3.496
				c-0.461-1.149-0.927-2.291-1.398-3.422c-0.478-1.133-0.998-2.222-1.552-3.275l-21.27-39.527
				c-0.263-0.494-0.538-0.889-0.834-1.182c-0.296-0.296-0.614-0.507-0.96-0.639c-0.345-0.131-0.729-0.214-1.157-0.247
				c-0.428-0.033-0.938-0.049-1.524-0.049h-9.992v71.182h11.665v-45.98c0-0.882-0.027-1.842-0.077-2.879
				c-0.049-1.03-0.137-2.09-0.269-3.176l21.807,40.514c0.494,0.922,1.136,1.635,1.92,2.146c0.79,0.507,1.706,0.762,2.759,0.762h1.82
				c1.048,0,1.97-0.255,2.754-0.762c0.79-0.511,1.432-1.224,1.925-2.146l21.511-40.366c-0.099,1.053-0.176,2.084-0.225,3.104
				c-0.05,1.016-0.071,1.953-0.071,2.803v45.98h11.666v-71.182h-9.993C325.358,395.377,324.854,395.394,324.426,395.427z
				 M477.425,438.645c0,0.954,0.021,1.98,0.071,3.077c0.049,1.103,0.137,2.227,0.269,3.373l-37.361-47.6
				c-0.361-0.46-0.691-0.828-0.981-1.108c-0.297-0.28-0.604-0.494-0.916-0.642c-0.308-0.148-0.664-0.247-1.059-0.296
				c-0.39-0.049-0.883-0.071-1.475-0.071h-6.938v71.182H440.7v-43.715c0-0.85-0.028-1.796-0.077-2.83
				c-0.05-1.032-0.121-2.073-0.22-3.126l37.219,47.408c0.652,0.851,1.327,1.442,2.019,1.771c0.686,0.328,1.558,0.491,2.604,0.491
				h6.845v-71.182h-11.665V438.645z M790.629,412.604c2.018-2.163,4.432-3.828,7.232-4.996c2.809-1.163,5.887-1.745,9.232-1.745
				c2.857,0,5.209,0.293,7.063,0.883c1.855,0.592,3.391,1.231,4.604,1.92c1.217,0.691,2.215,1.33,3.006,1.919
				c0.783,0.592,1.555,0.889,2.313,0.889c0.721,0,1.283-0.148,1.695-0.444c0.41-0.296,0.746-0.639,1.01-1.034l4.432-6.151
				c-2.826-2.792-6.209-5.029-10.164-6.721c-3.955-1.689-8.578-2.537-13.859-2.537c-5.412,0-10.359,0.895-14.842,2.686
				c-4.48,1.79-8.324,4.291-11.545,7.505c-3.213,3.22-5.709,7.048-7.48,11.496c-1.771,4.448-2.66,9.346-2.66,14.693
				c0,5.286,0.795,10.157,2.391,14.621c1.592,4.465,3.879,8.305,6.867,11.519c2.984,3.22,6.588,5.729,10.805,7.533
				c4.219,1.804,8.969,2.706,14.25,2.706c5.906,0,10.969-0.949,15.186-2.854c4.219-1.903,7.771-4.643,10.658-8.222l-5.217-5.66
				c-0.525-0.557-1.152-0.836-1.869-0.836c-0.428,0-0.824,0.09-1.186,0.269c-0.355,0.182-0.703,0.419-1.031,0.714
				c-1.08,0.986-2.172,1.814-3.275,2.486c-1.096,0.672-2.264,1.224-3.492,1.647c-1.234,0.428-2.578,0.741-4.037,0.938
				c-1.459,0.198-3.094,0.297-4.898,0.297c-3.021,0-5.84-0.568-8.467-1.7c-2.629-1.133-4.91-2.765-6.846-4.898
				s-3.465-4.758-4.602-7.876c-1.129-3.117-1.695-6.681-1.695-10.684c0-3.872,0.566-7.36,1.695-10.458
				C787.037,417.406,788.609,414.771,790.629,412.604z M681.371,429.788c2.197-0.757,4.09-1.675,5.68-2.759
				c1.598-1.081,2.908-2.287,3.938-3.617c1.037-1.33,1.801-2.756,2.295-4.284c0.492-1.527,0.734-3.125,0.734-4.799
				c0-2.92-0.488-5.548-1.477-7.879c-0.98-2.328-2.533-4.313-4.65-5.956c-2.117-1.64-4.826-2.901-8.123-3.79
				c-3.295-0.883-7.277-1.327-11.939-1.327h-24.561v71.182h26.875c4.135,0,7.811-0.524,11.029-1.578
				c3.215-1.047,5.924-2.501,8.123-4.354c2.199-1.853,3.871-4.062,5.018-6.619c1.152-2.562,1.723-5.35,1.723-8.37
				C696.035,437.269,691.148,431.987,681.371,429.788z M656.508,405.617h11.32c4.465,0,7.75,0.788,9.85,2.361
				c2.096,1.577,3.148,4.218,3.148,7.928c0,3.577-1.162,6.187-3.492,7.827c-2.332,1.639-5.744,2.459-10.24,2.459h-10.586V405.617z
				 M682.279,449.526c-0.443,1.311-1.166,2.463-2.166,3.444c-1.004,0.987-2.33,1.772-3.988,2.364
				c-1.654,0.592-3.719,0.889-6.18,0.889h-13.438v-20.875h13.389c2.33,0,4.316,0.23,5.957,0.69c1.643,0.459,2.986,1.126,4.035,1.992
				c1.053,0.871,1.826,1.919,2.314,3.15c0.494,1.23,0.74,2.619,0.74,4.16C682.943,446.816,682.725,448.216,682.279,449.526z
				 M728.477,395.377l-27.961,71.182h10.289c1.113,0,2.057-0.311,2.83-0.936c0.775-0.625,1.289-1.311,1.553-2.067l5.316-14.523
				h29.49l5.314,14.523c0.328,0.855,0.859,1.568,1.6,2.141c0.736,0.574,1.678,0.862,2.83,0.862h10.24l-27.967-71.182H728.477z
				 M723.896,439.682l8.666-23.581c0.428-1.083,0.861-2.344,1.305-3.79c0.445-1.445,0.895-3.002,1.355-4.675
				c0.461,1.673,0.928,3.225,1.404,4.651c0.473,1.426,0.91,2.665,1.307,3.716l8.66,23.679H723.896z M602.9,396.313
				c-0.717,0.623-1.26,1.297-1.623,2.018l-12.943,23.776c-0.756,1.38-1.404,2.702-1.947,3.963c-0.541,1.264-1.025,2.52-1.453,3.768
				c-0.459-1.216-0.965-2.455-1.523-3.719c-0.561-1.262-1.213-2.6-1.97-4.013l-13.049-23.776c-0.455-0.853-1.025-1.56-1.694-2.116
				c-0.675-0.557-1.585-0.837-2.731-0.837h-11.671l25.947,43.514v27.668h13.24v-27.668l25.893-43.514H605.66
				C604.541,395.377,603.625,395.69,602.9,396.313z M503.466,466.56h44.892v-10.583h-31.554v-20.134h24.861v-10.19h-24.861v-19.739
				h31.554v-10.536h-44.892V466.56z"/>
			<linearGradient id="SVGID_11_" gradientUnits="userSpaceOnUse" x1="256.8838" y1="428.625" x2="899.832" y2="428.625">
				<stop  offset="0.0816" style="stop-color:#191919"/>
				<stop  offset="0.4541" style="stop-color:#333333"/>
				<stop  offset="1" style="stop-color:#333333"/>
			</linearGradient>
			<path fill="url(#SVGID_11_)" d="M406.777,402.609c-3.148-3.233-6.938-5.768-11.369-7.605c-4.432-1.837-9.341-2.759-14.721-2.759
				c-5.381,0-10.295,0.911-14.743,2.734c-4.448,1.821-8.254,4.357-11.419,7.604c-3.17,3.25-5.621,7.097-7.36,11.544
				c-1.744,4.449-2.61,9.281-2.61,14.497c0,5.218,0.866,10.052,2.61,14.498c1.739,4.446,4.19,8.296,7.36,11.542
				c3.165,3.253,6.971,5.786,11.419,7.607s9.362,2.731,14.743,2.731c5.38,0,10.289-0.91,14.721-2.731
				c4.431-1.821,8.221-4.354,11.369-7.607c3.154-3.246,5.595-7.096,7.338-11.542c1.739-4.445,2.605-9.279,2.605-14.498
				c0-5.216-0.866-10.047-2.605-14.497C412.372,409.681,409.932,405.842,406.777,402.609z M401.583,439.136
				c-1.031,3.102-2.518,5.729-4.453,7.877c-1.936,2.149-4.289,3.798-7.064,4.946c-2.774,1.149-5.901,1.726-9.378,1.726
				c-3.478,0-6.614-0.576-9.401-1.726c-2.791-1.148-5.16-2.797-7.113-4.946c-1.952-2.147-3.455-4.775-4.502-7.877
				c-1.054-3.102-1.58-6.606-1.58-10.51c0-3.906,0.526-7.41,1.58-10.509c1.047-3.102,2.55-5.737,4.502-7.903
				c1.953-2.164,4.322-3.823,7.113-4.969c2.787-1.149,5.924-1.723,9.401-1.723c3.477,0,6.604,0.574,9.378,1.723
				c2.775,1.146,5.129,2.805,7.064,4.969c1.936,2.167,3.422,4.802,4.453,7.903c1.037,3.099,1.553,6.603,1.553,10.509
				C403.136,432.529,402.62,436.034,401.583,439.136z M875.125,430.89c-0.824-1.113-1.668-2.034-2.541-2.755
				c-0.865-0.721-1.842-1.281-2.928-1.675c0.789-0.393,1.529-0.9,2.215-1.525c0.691-0.622,1.416-1.393,2.168-2.313l23.973-29.584
				h-11.42c-1.375,0-2.518,0.203-3.422,0.614c-0.898,0.412-1.768,1.141-2.584,2.191l-19.639,24.858
				c-0.594,0.758-1.301,1.306-2.117,1.652c-0.824,0.345-1.855,0.515-3.105,0.515h-3.098v-29.88h-13.246v71.231h13.246v-31.31h4.186
				c1.508,0,2.668,0.188,3.492,0.564c0.822,0.379,1.559,0.993,2.215,1.849l20.135,26.288c0.527,0.854,1.174,1.5,1.941,1.941
				c0.773,0.444,1.947,0.667,3.521,0.667h11.715L875.125,430.89z M322.55,393.085c-0.421,0.033-0.811,0.115-1.151,0.247
				c-0.346,0.132-0.658,0.343-0.938,0.639c-0.28,0.293-0.549,0.688-0.812,1.182l-21.072,39.428c-0.554,1.054-1.08,2.149-1.574,3.3
				c-0.493,1.148-0.965,2.313-1.426,3.496c-0.461-1.149-0.927-2.291-1.404-3.424c-0.477-1.131-0.992-2.22-1.552-3.273
				l-21.264-39.527c-0.264-0.494-0.543-0.889-0.839-1.182c-0.297-0.296-0.615-0.507-0.961-0.639
				c-0.345-0.131-0.729-0.214-1.156-0.247s-0.933-0.049-1.525-0.049h-9.992v71.182h11.665v-45.98c0-0.883-0.021-1.843-0.071-2.879
				c-0.049-1.031-0.143-2.09-0.274-3.176l21.813,40.514c0.488,0.921,1.13,1.635,1.92,2.145c0.784,0.508,1.705,0.763,2.753,0.763
				h1.821c1.053,0,1.969-0.255,2.759-0.763c0.789-0.51,1.426-1.224,1.92-2.145l21.51-40.366c-0.099,1.053-0.17,2.084-0.219,3.104
				c-0.05,1.014-0.071,1.952-0.071,2.802v45.98h11.665v-71.182h-9.992C323.488,393.036,322.979,393.052,322.55,393.085z
				 M475.549,436.303c0,0.954,0.027,1.98,0.077,3.077c0.049,1.103,0.137,2.227,0.269,3.373l-37.361-47.6
				c-0.362-0.461-0.691-0.828-0.987-1.108c-0.296-0.28-0.598-0.494-0.91-0.642c-0.313-0.148-0.663-0.247-1.059-0.296
				c-0.395-0.049-0.889-0.071-1.476-0.071h-6.943v71.182h11.666v-43.715c0-0.85-0.022-1.797-0.071-2.831
				c-0.05-1.031-0.126-2.073-0.22-3.126l37.213,47.408c0.658,0.851,1.327,1.443,2.019,1.772c0.691,0.328,1.558,0.491,2.61,0.491
				h6.84v-71.182h-11.666V436.303z M788.752,410.263c2.018-2.164,4.432-3.828,7.24-4.996c2.803-1.163,5.879-1.745,9.23-1.745
				c2.854,0,5.205,0.293,7.064,0.883c1.854,0.592,3.385,1.231,4.602,1.92c1.211,0.691,2.215,1.33,3,1.919
				c0.789,0.592,1.559,0.888,2.314,0.888c0.725,0,1.289-0.148,1.701-0.444c0.41-0.297,0.746-0.639,1.008-1.034l4.432-6.151
				c-2.824-2.792-6.213-5.029-10.168-6.721c-3.955-1.689-8.572-2.537-13.854-2.537c-5.42,0-10.367,0.895-14.848,2.685
				c-4.475,1.791-8.326,4.292-11.539,7.506c-3.221,3.22-5.711,7.048-7.486,11.496c-1.771,4.448-2.654,9.346-2.654,14.693
				c0,5.286,0.795,10.157,2.385,14.621c1.592,4.465,3.883,8.305,6.867,11.519c2.988,3.22,6.586,5.728,10.805,7.532
				c4.217,1.805,8.967,2.707,14.254,2.707c5.906,0,10.969-0.949,15.188-2.854c4.211-1.903,7.766-4.643,10.656-8.222l-5.223-5.66
				c-0.52-0.557-1.145-0.836-1.869-0.836c-0.422,0-0.816,0.09-1.18,0.269c-0.361,0.181-0.707,0.419-1.037,0.713
				c-1.08,0.987-2.17,1.815-3.268,2.487c-1.104,0.672-2.266,1.224-3.5,1.647c-1.229,0.428-2.57,0.741-4.035,0.938
				c-1.459,0.198-3.096,0.297-4.898,0.297c-3.016,0-5.842-0.568-8.469-1.7c-2.621-1.133-4.902-2.766-6.84-4.898
				c-1.936-2.134-3.471-4.758-4.602-7.876c-1.135-3.117-1.699-6.68-1.699-10.683c0-3.872,0.564-7.361,1.699-10.459
				C785.16,415.064,786.734,412.429,788.752,410.263z M679.494,427.446c2.199-0.757,4.096-1.676,5.688-2.759
				c1.59-1.081,2.9-2.287,3.938-3.617c1.031-1.331,1.799-2.756,2.287-4.284c0.494-1.527,0.74-3.126,0.74-4.799
				c0-2.92-0.494-5.548-1.475-7.879c-0.988-2.328-2.539-4.313-4.65-5.956c-2.117-1.64-4.828-2.902-8.123-3.79
				c-3.303-0.883-7.279-1.327-11.941-1.327h-24.564v71.182h26.879c4.135,0,7.811-0.524,11.025-1.578
				c3.219-1.047,5.924-2.501,8.121-4.354c2.199-1.854,3.873-4.062,5.025-6.619c1.146-2.563,1.723-5.352,1.723-8.37
				C694.166,434.926,689.273,429.646,679.494,427.446z M654.639,403.275h11.318c4.465,0,7.746,0.787,9.846,2.361
				c2.1,1.577,3.154,4.217,3.154,7.928c0,3.576-1.168,6.187-3.5,7.827c-2.33,1.639-5.742,2.459-10.24,2.459h-10.578V403.275z
				 M680.404,447.185c-0.439,1.311-1.162,2.463-2.166,3.444c-1,0.987-2.332,1.772-3.988,2.364s-3.713,0.888-6.176,0.888h-13.436
				v-20.874h13.387c2.332,0,4.316,0.23,5.957,0.69c1.639,0.458,2.984,1.125,4.035,1.992c1.049,0.871,1.822,1.919,2.316,3.15
				c0.492,1.23,0.732,2.618,0.732,4.159C681.066,444.475,680.848,445.874,680.404,447.185z M726.605,393.036l-27.961,71.182h10.285
				c1.119,0,2.063-0.311,2.836-0.937c0.768-0.624,1.283-1.31,1.547-2.066l5.32-14.523h29.484l5.314,14.523
				c0.33,0.855,0.861,1.568,1.602,2.141c0.74,0.574,1.684,0.862,2.83,0.862h10.24l-27.961-71.182H726.605z M722.027,437.34
				l8.664-23.581c0.424-1.083,0.861-2.345,1.307-3.79c0.439-1.445,0.889-3.002,1.35-4.675c0.461,1.673,0.926,3.225,1.404,4.651
				c0.477,1.426,0.91,2.665,1.305,3.716l8.666,23.679H722.027z M601.031,393.971c-0.725,0.623-1.266,1.297-1.623,2.018
				l-12.949,23.775c-0.758,1.38-1.404,2.702-1.947,3.964c-0.537,1.264-1.025,2.519-1.447,3.767
				c-0.461-1.214-0.973-2.453-1.531-3.718c-0.554-1.261-1.213-2.6-1.969-4.012l-13.043-23.775c-0.46-0.853-1.025-1.561-1.7-2.117
				c-0.669-0.556-1.579-0.836-2.73-0.836h-11.667l25.943,43.514v27.668h13.24V436.55l25.898-43.514h-11.721
				C602.67,393.036,601.75,393.348,601.031,393.971z M501.59,464.218h44.896v-10.583h-31.553v-20.134h24.856v-10.19h-24.856v-19.739
				h31.553v-10.536H501.59V464.218z"/>
			<linearGradient id="SVGID_12_" gradientUnits="userSpaceOnUse" x1="256.8838" y1="428.2314" x2="899.832" y2="428.2314">
				<stop  offset="0.0816" style="stop-color:#191919"/>
				<stop  offset="0.4541" style="stop-color:#333333"/>
				<stop  offset="1" style="stop-color:#333333"/>
			</linearGradient>
			<path fill="url(#SVGID_12_)" d="M517.271,456.911h29.216v-3.276h-29.216V456.911z M517.271,423.311v3.277h22.52v-3.277H517.271z
				 M564.433,396.313c1.146,0,2.051,0.28,2.72,0.834l-0.631-1.158c-0.46-0.853-1.025-1.561-1.7-2.117
				c-0.669-0.556-1.579-0.836-2.73-0.836h-11.667l25.943,43.514v27.668h2.342v-24.391l-25.948-43.515H564.433z M501.59,464.218
				h2.342v-67.905h42.555v-3.277H501.59V464.218z M475.549,436.303c0,0.954,0.027,1.98,0.077,3.077
				c0.049,1.103,0.137,2.227,0.269,3.373l-37.361-47.6c-0.362-0.461-0.691-0.828-0.987-1.108c-0.296-0.28-0.598-0.494-0.91-0.642
				c-0.313-0.148-0.663-0.247-1.059-0.296c-0.395-0.049-0.889-0.071-1.476-0.071h-6.943v71.182h2.342v-67.905h6.938
				c0.592,0,1.086,0.022,1.476,0.071c0.395,0.049,0.751,0.148,1.058,0.296c0.313,0.148,0.62,0.362,0.916,0.642
				c0.291,0.28,0.62,0.647,0.982,1.108l37.36,47.601c-0.132-1.147-0.219-2.271-0.269-3.373c-0.05-1.097-0.071-2.122-0.071-3.076
				v-43.269h9.324v-3.277h-11.666V436.303z M399.576,413.622c0.79,1.371,1.465,2.866,2.007,4.495
				c1.037,3.099,1.553,6.603,1.553,10.509c0,3.904-0.516,7.409-1.553,10.51c-1.031,3.102-2.518,5.729-4.453,7.877
				c-1.936,2.149-4.289,3.798-7.064,4.946c-2.774,1.149-5.901,1.726-9.378,1.726c-3.478,0-6.614-0.576-9.401-1.726
				c-2.791-1.148-5.16-2.797-7.113-4.946c-0.093-0.103-0.17-0.218-0.257-0.318c0.751,1.318,1.617,2.517,2.594,3.595
				c1.952,2.149,4.327,3.798,7.113,4.947c2.792,1.148,5.923,1.725,9.406,1.725c3.477,0,6.604-0.576,9.373-1.725
				c2.775-1.149,5.128-2.798,7.063-4.947c1.937-2.147,3.423-4.775,4.459-7.877c1.031-3.101,1.553-6.604,1.553-10.51
				c0-3.906-0.521-7.41-1.553-10.509C402.911,418.352,401.458,415.764,399.576,413.622z M271.9,396.609
				c0.132,0.052,0.247,0.173,0.373,0.25l-0.916-1.706c-0.264-0.494-0.543-0.889-0.839-1.182c-0.297-0.296-0.615-0.507-0.961-0.639
				c-0.345-0.131-0.729-0.214-1.156-0.247s-0.933-0.049-1.525-0.049h-9.992v71.182h2.342v-67.905h9.993
				c0.587,0,1.097,0.017,1.524,0.049C271.171,396.395,271.555,396.478,271.9,396.609z M322.408,464.218h2.336v-42.704
				c0-0.85,0.022-1.787,0.071-2.802c0.05-1.021,0.127-2.052,0.225-3.105l-2.632,4.941V464.218z M601.031,393.971
				c-0.725,0.623-1.266,1.297-1.623,2.018l-12.949,23.775c-0.758,1.38-1.404,2.702-1.947,3.964c-0.373,0.868-0.68,1.73-0.998,2.593
				c0.109,0.236,0.258,0.502,0.361,0.733c0.561,1.264,1.064,2.503,1.525,3.718c0.428-1.248,0.91-2.504,1.453-3.768
				c0.543-1.262,1.191-2.583,1.947-3.962l12.943-23.776c0.361-0.722,0.904-1.396,1.623-2.018c0.725-0.623,1.641-0.936,2.76-0.936
				h7.426l1.953-3.277h-11.721C602.67,393.036,601.75,393.348,601.031,393.971z M395.408,395.004
				c-4.432-1.837-9.341-2.759-14.721-2.759c-5.381,0-10.295,0.911-14.743,2.734c-4.448,1.821-8.254,4.357-11.419,7.604
				c-3.17,3.25-5.621,7.097-7.36,11.544c-1.744,4.449-2.61,9.281-2.61,14.497c0,5.218,0.866,10.052,2.61,14.498
				c1.344,3.444,3.138,6.521,5.343,9.247c-1.163-1.856-2.172-3.839-3.006-5.97c-1.739-4.445-2.605-9.279-2.605-14.498
				c0-5.216,0.866-10.047,2.605-14.496c1.738-4.448,4.195-8.295,7.36-11.545c3.17-3.247,6.976-5.784,11.419-7.604
				c4.447-1.824,9.361-2.734,14.748-2.734c5.38,0,10.289,0.921,14.715,2.759c4.432,1.837,8.222,4.371,11.375,7.604
				c0.702,0.724,1.36,1.486,1.996,2.271c-1.261-2.01-2.697-3.867-4.338-5.547C403.629,399.376,399.839,396.842,395.408,395.004z
				 M322.55,393.085c-0.421,0.033-0.811,0.115-1.151,0.247c-0.346,0.132-0.658,0.343-0.938,0.639
				c-0.28,0.293-0.549,0.688-0.812,1.182l-21.072,39.428c-0.554,1.054-1.08,2.149-1.574,3.3c-0.329,0.772-0.642,1.565-0.96,2.354
				c0.154,0.337,0.324,0.65,0.473,0.996c0.471,1.132,0.938,2.273,1.397,3.422c0.461-1.183,0.938-2.348,1.432-3.496
				c0.488-1.148,1.016-2.246,1.574-3.3l21.066-39.428c0.264-0.493,0.537-0.888,0.813-1.182c0.279-0.297,0.592-0.507,0.938-0.639
				c0.346-0.131,0.729-0.214,1.157-0.247c0.428-0.033,0.933-0.049,1.524-0.049h7.656v-3.277h-9.992
				C323.488,393.036,322.979,393.052,322.55,393.085z M270.655,416.729l19.36,35.967c0.412,0.771,0.949,1.36,1.563,1.844
				l-21.033-39.081C270.595,415.892,270.611,416.304,270.655,416.729z M805.322,392.246c-5.42,0-10.367,0.895-14.848,2.685
				c-4.475,1.791-8.326,4.292-11.539,7.506c-3.221,3.22-5.711,7.048-7.486,11.496c-1.771,4.448-2.654,9.346-2.654,14.693
				c0,5.286,0.795,10.157,2.385,14.621c1.334,3.741,3.186,7.019,5.5,9.878c-1.244-2.026-2.307-4.217-3.158-6.601
				c-1.596-4.465-2.391-9.334-2.391-14.621c0-5.348,0.887-10.246,2.66-14.694c1.771-4.447,4.266-8.275,7.48-11.496
				c3.221-3.214,7.064-5.715,11.545-7.505c4.482-1.791,9.428-2.685,14.842-2.685c5.281,0,9.904,0.848,13.859,2.537
				c2.688,1.149,5.09,2.575,7.256,4.231l0.57-0.787c-2.824-2.792-6.213-5.029-10.168-6.721
				C815.221,393.093,810.604,392.246,805.322,392.246z M749.318,449.968l4.113,11.247c0.33,0.855,0.861,1.568,1.602,2.141
				c0.115,0.092,0.275,0.127,0.4,0.203l-4.975-13.591H749.318z M839.381,464.218h2.342v-67.954h10.904v-3.277h-13.246V464.218z
				 M680.234,397.64c3.297,0.889,6.006,2.15,8.123,3.79c0.658,0.513,1.246,1.069,1.793,1.648c-0.975-1.881-2.342-3.535-4.129-4.925
				c-2.117-1.64-4.828-2.902-8.123-3.79c-3.303-0.883-7.279-1.327-11.941-1.327h-24.564v71.182h2.342v-67.905h24.561
				C672.957,396.313,676.938,396.757,680.234,397.64z M885.512,396.927c0.9-0.412,2.041-0.615,3.424-0.615h6.422l2.654-3.277h-11.42
				c-1.375,0-2.518,0.203-3.422,0.614c-0.898,0.412-1.768,1.141-2.584,2.191l-19.639,24.858c-0.594,0.758-1.301,1.306-2.117,1.652
				c-0.824,0.345-1.855,0.515-3.105,0.515h-0.762v3.278h3.104c1.244,0,2.281-0.171,3.1-0.516c0.822-0.346,1.529-0.894,2.117-1.651
				l19.641-24.859C883.746,398.068,884.607,397.338,885.512,396.927z M875.125,430.89c-0.572-0.776-1.164-1.423-1.756-2.006
				c-0.445,0.32-0.895,0.614-1.371,0.853c1.08,0.395,2.057,0.954,2.93,1.675c0.865,0.721,1.715,1.643,2.533,2.756l22.283,30.051
				h0.088L875.125,430.89z M821.857,447.432c-0.422,0-0.816,0.09-1.18,0.269c-0.361,0.181-0.707,0.419-1.037,0.713
				c-1.08,0.987-2.17,1.815-3.268,2.487c-1.104,0.672-2.266,1.224-3.5,1.647c-1.229,0.428-2.57,0.741-4.035,0.938
				c-1.459,0.198-3.096,0.297-4.898,0.297c-3.016,0-5.842-0.568-8.469-1.7c-2.621-1.133-4.902-2.766-6.84-4.898
				c-0.109-0.121-0.201-0.258-0.311-0.379c0.777,1.344,1.66,2.566,2.648,3.655c1.936,2.135,4.217,3.766,6.846,4.898
				c2.627,1.133,5.445,1.7,8.467,1.7c1.805,0,3.438-0.099,4.898-0.296c1.459-0.198,2.803-0.51,4.035-0.938
				c1.229-0.426,2.396-0.977,3.494-1.648c1.102-0.672,2.193-1.501,3.275-2.487c0.328-0.293,0.674-0.532,1.031-0.714
				c0.361-0.178,0.756-0.269,1.184-0.269c0.719,0,1.344,0.279,1.871,0.836l2.539,2.757c0.109-0.129,0.229-0.241,0.34-0.373
				l-5.223-5.66C823.207,447.711,822.582,447.432,821.857,447.432z M737.094,413.222c-0.479-1.426-0.943-2.978-1.404-4.651
				c-0.215,0.778-0.428,1.525-0.637,2.251c0.357,1.05,0.695,2.018,1.004,2.838l8.666,23.679H725.57l-1.207,3.276h22.695
				l-8.66-23.678C738.004,415.887,737.564,414.647,737.094,413.222z M675.457,421.392c-2.33,1.639-5.742,2.459-10.24,2.459h-8.242
				v3.278h10.584c4.498,0,7.91-0.82,10.24-2.46c2.332-1.64,3.494-4.25,3.494-7.827c0-3.661-1.035-6.269-3.076-7.854
				c0.482,1.286,0.74,2.802,0.74,4.577C678.957,417.14,677.789,419.751,675.457,421.392z M680.371,438.982
				c0.461,1.198,0.695,2.53,0.695,4.017c0,1.476-0.219,2.875-0.662,4.186c-0.439,1.311-1.162,2.463-2.166,3.444
				c-1,0.987-2.332,1.772-3.988,2.364s-3.713,0.888-6.176,0.888h-11.1v3.278h13.438c2.461,0,4.523-0.297,6.18-0.89
				c1.658-0.592,2.984-1.376,3.988-2.364c0.998-0.981,1.723-2.133,2.166-3.444c0.445-1.31,0.664-2.709,0.664-4.184
				c0-1.541-0.248-2.929-0.74-4.16C682.18,440.894,681.414,439.852,680.371,438.982z M685.127,429.341
				c-1.016,0.504-2.102,0.97-3.291,1.381c4.695,1.056,8.232,2.844,10.672,5.32C691.045,433.18,688.592,430.942,685.127,429.341z
				 M741.426,396.313l-1.283-3.277h-13.537l-27.961,71.182h3.627l26.672-67.905H741.426z"/>
		</g>
	</g>
</g>
<g id="vexels">
	<g>
		<g>
			<path fill="#3E3C3C" d="M583.852,826.789l-1.014-2.195c-0.5-1.054-1.824-1.544-2.94-1.092c-1.206,0.413-1.743,1.658-1.245,2.678
				l1.139,2.47l9.013,19.555c0.086,0.077,0.168,0.226,0.205,0.302c0,0.037,0.046,0.037,0.046,0.037
				c0.041,0.075,0.125,0.151,0.207,0.228c0,0.074,0.041,0.074,0.041,0.112c0.122,0.076,0.206,0.112,0.286,0.189
				c0.043,0,0.043,0,0.043,0c0.126,0.075,0.292,0.187,0.375,0.225c0.041,0,0.041,0,0.041,0s0.043,0,0.043,0.039
				c0.082,0,0.247,0.038,0.331,0.072c0.037,0,0.082,0,0.082,0c0.122,0.041,0.29,0.041,0.417,0.041c0.123,0,0.248,0,0.413-0.041
				c0.04,0,0.081,0,0.081,0c0.124-0.034,0.206-0.072,0.332-0.072c0.043-0.039,0.043-0.039,0.082-0.039
				c0.126-0.038,0.251-0.149,0.333-0.188c0.082-0.036,0.082-0.036,0.082-0.036c0.083-0.077,0.165-0.113,0.247-0.189
				c0.044-0.038,0.044-0.038,0.084-0.112c0.042-0.076,0.165-0.152,0.206-0.228c0.041,0,0.041,0,0.041-0.037
				c0.084-0.076,0.13-0.225,0.17-0.302l0.386-0.831l-2.457-5.317L583.852,826.789z M671.754,826.632
				c0.702-0.943,0.539-2.224-0.495-2.867c-1.036-0.715-2.406-0.526-3.19,0.454l-4.723,5.891l2.812,3.439L671.754,826.632z
				 M601.98,823.502c-1.117-0.452-2.483,0.038-2.982,1.092l-6,12.97l2.463,5.326l7.764-16.71
				C603.681,825.16,603.143,823.915,601.98,823.502z M548.494,815.53c-0.976-0.974-2.271-1.51-3.648-1.51
				c-1.378,0-2.671,0.536-3.645,1.51l-16.696,16.698c-2.007,2.012-2.007,5.278,0,7.287l16.696,16.698
				c0.974,0.974,2.267,1.508,3.645,1.508c1.377,0,2.673-0.534,3.648-1.506l16.693-16.7c0.977-0.977,1.513-2.265,1.513-3.646
				c0-1.371-0.536-2.668-1.513-3.641L548.494,815.53z M562.597,837.369l-16.253,16.252c-0.801,0.8-2.194,0.8-2.99,0l-16.254-16.252
				c-0.824-0.826-0.824-2.168-0.003-2.994l16.258-16.253c0.013-0.015,0.027-0.027,0.042-0.037v13.468
				c-0.661,0.224-1.271,0.577-1.78,1.089c-0.862,0.861-1.336,2.009-1.336,3.228c0,1.223,0.474,2.373,1.336,3.23
				c0.863,0.866,2.012,1.342,3.229,1.342c1.222,0,2.371-0.472,3.234-1.342c1.779-1.778,1.779-4.677,0-6.463
				c-0.509-0.509-1.119-0.86-1.781-1.084v-13.468c0.013,0.01,0.031,0.022,0.046,0.037l16.253,16.253
				c0.399,0.399,0.616,0.931,0.616,1.494C563.213,836.435,562.996,836.963,562.597,837.369z M663.885,836.361l-2.781-3.47
				l-6.997-8.673c-0.71-0.98-2.158-1.169-3.154-0.454c-1.036,0.644-1.241,1.924-0.538,2.867l7.872,9.729l-7.872,9.806
				c-0.703,0.904-0.498,2.227,0.538,2.866c0.373,0.264,0.83,0.416,1.325,0.416c0.706,0,1.367-0.341,1.829-0.87l6.997-8.71
				l7.476,9.354c0.433,0.537,1.114,0.815,1.75,0.815c0.474,0,1.027-0.218,1.425-0.534c0.938-0.747,1.012-2.103,0.262-3.038
				L663.885,836.361z M627.24,823.093c-6.701,0-12.156,5.925-12.156,13.206c0,7.225,5.455,13.106,12.156,13.106
				c4.116,0,7.908-2.245,10.144-6.011c0.539-0.972,0.267-2.183-0.683-2.904c-0.306-0.196-0.666-0.301-1.035-0.301
				c-0.716,0-1.354,0.383-1.699,1.013c-1.404,2.473-3.982,4.006-6.727,4.006c-4.066,0-7.437-3.234-8.04-7.611h18.083
				c1.131,0,2.014-0.878,2.014-1.999l-0.001-0.268C638.781,828.356,633.598,823.093,627.24,823.093z M619.495,833.451
				c1.099-3.711,4.14-6.16,7.745-6.16c3.532,0,6.589,2.504,7.618,6.16H619.495z M730.837,845.143
				c-0.041-0.001-3.114-0.001-3.158-0.001c-1.172,0-2.535-0.674-2.535-2.566v-21c0-1.235-1.008-2.237-2.246-2.237
				c-1.195,0-2.24,1.046-2.24,2.237v21c0,4.152,2.756,6.833,7.021,6.833c0.055,0,3.135,0,3.188-0.003
				c1.106-0.079,1.978-1.007,1.978-2.131C732.844,846.145,731.956,845.208,730.837,845.143z M765.128,838.211
				c-0.954-1.399-2.444-2.378-4.145-3.13c-1.656-0.72-3.604-1.208-5.719-1.585h-0.083c-2.235-0.376-4.099-0.984-5.177-1.661
				c-0.539-0.336-0.915-0.677-1.123-0.979c-0.205-0.299-0.288-0.605-0.288-1.053c0-0.795,0.454-1.624,1.578-2.378
				c1.115-0.753,2.774-1.282,4.638-1.282c2.526,0,4.557,1.13,6.673,2.412c0.992,0.603,2.32,0.339,2.939-0.565
				c0.664-0.867,0.375-2.075-0.577-2.678c-2.115-1.244-5.059-3.017-9.035-3.017c-2.694,0-5.218,0.716-7.168,1.997
				c-1.907,1.288-3.316,3.245-3.316,5.511c0,1.128,0.332,2.187,0.955,3.089c0.909,1.321,2.277,2.265,3.85,2.941
				c1.574,0.679,3.401,1.133,5.345,1.471h0.087c2.443,0.416,4.476,1.057,5.677,1.772c0.621,0.379,0.993,0.754,1.244,1.133
				c0.247,0.378,0.37,0.714,0.37,1.204c0,0.945-0.536,1.888-1.783,2.717c-1.24,0.829-3.105,1.396-5.177,1.396
				c-2.943,0.038-6.093-1.547-7.915-2.902c-0.912-0.684-2.279-0.568-3.024,0.259c-0.707,0.831-0.58,2.076,0.332,2.753
				c2.363,1.701,6.131,3.738,10.607,3.772c2.941,0,5.636-0.79,7.668-2.146c2.069-1.361,3.561-3.432,3.561-5.849
				C766.121,840.245,765.751,839.115,765.128,838.211z M696.436,823.093c-6.702,0-12.154,5.925-12.154,13.206
				c0,7.225,5.452,13.106,12.154,13.106c4.121,0,7.906-2.245,10.146-6.011c0.538-0.972,0.266-2.183-0.68-2.904
				c-0.31-0.196-0.669-0.301-1.039-0.301c-0.716,0-1.352,0.383-1.699,1.013c-1.402,2.473-3.98,4.006-6.729,4.006
				c-4.064,0-7.437-3.234-8.039-7.611h18.086c1.129,0,2.014-0.878,2.014-1.999l-0.002-0.268
				C707.98,828.356,702.797,823.093,696.436,823.093z M688.691,833.451c1.098-3.711,4.141-6.16,7.744-6.16
				c3.539,0,6.591,2.504,7.618,6.16H688.691z"/>
		</g>
		<g>
			<path fill="#3E3C3C" d="M400.375,837.623c0,0.783,0.007,1.494,0.023,2.132s0.084,1.264,0.207,1.878h-1.245l-0.46-1.636h-0.092
				c-0.308,0.538-0.753,0.983-1.336,1.337c-0.584,0.353-1.268,0.529-2.052,0.529c-1.536,0-2.677-0.482-3.422-1.451
				c-0.745-0.969-1.118-2.481-1.118-4.541c0-1.967,0.465-3.459,1.395-4.481c0.929-1.021,2.208-1.532,3.837-1.532
				c0.569,0,1.018,0.031,1.349,0.092c0.33,0.062,0.688,0.16,1.072,0.3v-4.795h1.844V837.623z M395.719,840.251
				c0.783,0,1.406-0.204,1.867-0.611c0.46-0.406,0.775-1.025,0.945-1.854v-5.716c-0.277-0.215-0.591-0.369-0.945-0.461
				c-0.354-0.093-0.822-0.139-1.406-0.139c-1.06,0-1.89,0.351-2.489,1.049c-0.599,0.699-0.899,1.817-0.899,3.353
				c0,0.631,0.05,1.214,0.15,1.752c0.099,0.539,0.265,0.999,0.495,1.383c0.231,0.385,0.534,0.688,0.911,0.911
				C394.724,840.14,395.181,840.251,395.719,840.251z"/>
			<path fill="#3E3C3C" d="M412.336,840.666c-0.461,0.368-1.042,0.66-1.74,0.875c-0.7,0.215-1.44,0.322-2.224,0.322
				c-0.876,0-1.637-0.142-2.282-0.426c-0.646-0.285-1.176-0.691-1.59-1.223c-0.415-0.529-0.723-1.163-0.922-1.9
				c-0.2-0.737-0.3-1.566-0.3-2.489c0-1.967,0.438-3.464,1.314-4.493c0.875-1.029,2.128-1.546,3.756-1.546
				c0.523,0,1.045,0.06,1.567,0.174c0.522,0.115,0.992,0.335,1.406,0.657c0.415,0.323,0.752,0.78,1.014,1.372
				c0.261,0.591,0.392,1.37,0.392,2.338c0,0.508-0.046,1.068-0.138,1.684h-7.398c0,0.675,0.069,1.274,0.207,1.797
				c0.139,0.523,0.354,0.964,0.646,1.324c0.292,0.362,0.672,0.64,1.14,0.831c0.469,0.191,1.041,0.288,1.717,0.288
				c0.522,0,1.044-0.093,1.567-0.276c0.522-0.186,0.915-0.4,1.176-0.646L412.336,840.666z M408.372,831.4
				c-0.907,0-1.633,0.238-2.179,0.715c-0.545,0.477-0.872,1.291-0.979,2.443h5.716c0-1.169-0.223-1.986-0.669-2.455
				C409.816,831.635,409.186,831.4,408.372,831.4z"/>
			<path fill="#3E3C3C" d="M420.702,838.454c0-0.463-0.139-0.823-0.415-1.084c-0.277-0.262-0.619-0.479-1.026-0.657
				c-0.407-0.177-0.853-0.346-1.336-0.508c-0.484-0.16-0.93-0.368-1.337-0.621c-0.407-0.254-0.749-0.58-1.026-0.979
				c-0.276-0.4-0.415-0.938-0.415-1.614c0-1.106,0.314-1.916,0.944-2.43c0.63-0.515,1.506-0.774,2.628-0.774
				c0.83,0,1.524,0.074,2.086,0.22c0.561,0.146,1.048,0.32,1.463,0.52l-0.438,1.521c-0.353-0.168-0.78-0.319-1.279-0.448
				c-0.499-0.132-1.033-0.197-1.602-0.197c-0.676,0-1.171,0.115-1.486,0.346c-0.315,0.231-0.473,0.63-0.473,1.198
				c0,0.399,0.139,0.711,0.416,0.935c0.276,0.223,0.618,0.422,1.025,0.6c0.407,0.175,0.853,0.349,1.337,0.518
				c0.484,0.169,0.929,0.392,1.336,0.669c0.407,0.276,0.749,0.626,1.026,1.048c0.276,0.423,0.415,0.979,0.415,1.67
				c0,0.494-0.08,0.954-0.242,1.384c-0.161,0.431-0.411,0.8-0.749,1.105c-0.338,0.309-0.757,0.551-1.256,0.727
				c-0.5,0.177-1.087,0.265-1.763,0.265c-0.876,0-1.622-0.085-2.235-0.254c-0.615-0.168-1.13-0.368-1.544-0.598l0.553-1.568
				c0.353,0.2,0.814,0.385,1.383,0.554c0.567,0.169,1.144,0.254,1.728,0.254c0.66,0,1.206-0.131,1.636-0.393
				C420.486,839.598,420.702,839.129,420.702,838.454z"/>
			<path fill="#3E3C3C" d="M425.333,826.562c0-0.354,0.119-0.657,0.357-0.911c0.238-0.254,0.542-0.38,0.911-0.38
				s0.683,0.126,0.944,0.38c0.262,0.254,0.392,0.558,0.392,0.911c0,0.353-0.13,0.645-0.392,0.875
				c-0.261,0.231-0.576,0.346-0.944,0.346s-0.673-0.114-0.911-0.346C425.452,827.206,425.333,826.914,425.333,826.562z
				 M425.725,830.063h1.843v11.523h-1.843V830.063z"/>
			<path fill="#3E3C3C" d="M440.336,842.118c0,1.489-0.396,2.589-1.187,3.295s-1.962,1.061-3.514,1.061
				c-0.922,0-1.664-0.058-2.225-0.174c-0.561-0.114-1.041-0.264-1.44-0.449l0.484-1.566c0.354,0.138,0.745,0.269,1.176,0.392
				c0.43,0.123,0.991,0.184,1.682,0.184c0.646,0,1.172-0.058,1.579-0.172c0.406-0.115,0.733-0.309,0.979-0.577
				c0.246-0.269,0.415-0.614,0.507-1.037c0.092-0.423,0.138-0.926,0.138-1.51v-1.105h-0.092c-0.307,0.445-0.699,0.788-1.175,1.025
				c-0.477,0.238-1.099,0.357-1.868,0.357c-1.552,0-2.692-0.483-3.422-1.452c-0.73-0.968-1.095-2.475-1.095-4.518
				c0-1.967,0.469-3.459,1.406-4.481c0.938-1.021,2.319-1.532,4.148-1.532c0.876,0,1.625,0.068,2.248,0.206
				c0.622,0.14,1.178,0.3,1.67,0.485V842.118z M435.704,840.227c0.783,0,1.397-0.195,1.843-0.587s0.761-1.003,0.946-1.832v-5.9
				c-0.616-0.292-1.399-0.438-2.351-0.438c-1.045,0-1.867,0.354-2.466,1.06c-0.599,0.707-0.898,1.814-0.898,3.318
				c0,0.646,0.053,1.237,0.161,1.775c0.107,0.539,0.276,0.999,0.507,1.383c0.23,0.385,0.53,0.684,0.899,0.899
				C434.713,840.12,435.167,840.227,435.704,840.227z"/>
			<path fill="#3E3C3C" d="M451.283,841.587v-6.568c0-1.197-0.173-2.101-0.519-2.707c-0.346-0.607-0.979-0.911-1.901-0.911
				c-0.814,0-1.486,0.22-2.017,0.657s-0.903,0.986-1.118,1.647v7.882h-1.843v-11.523h1.291l0.346,1.406h0.092
				c0.369-0.492,0.864-0.895,1.487-1.21c0.622-0.314,1.364-0.474,2.224-0.474c0.63,0,1.183,0.074,1.659,0.22
				c0.476,0.146,0.872,0.403,1.188,0.772c0.314,0.368,0.553,0.865,0.714,1.486c0.162,0.622,0.242,1.41,0.242,2.362v6.96H451.283z"/>
			<path fill="#3E3C3C" d="M464.904,840.666c-0.461,0.368-1.042,0.66-1.74,0.875c-0.7,0.215-1.44,0.322-2.224,0.322
				c-0.876,0-1.637-0.142-2.282-0.426c-0.646-0.285-1.176-0.691-1.591-1.223c-0.415-0.529-0.723-1.163-0.921-1.9
				c-0.2-0.737-0.3-1.566-0.3-2.489c0-1.967,0.438-3.464,1.314-4.493c0.875-1.029,2.128-1.546,3.756-1.546
				c0.523,0,1.045,0.06,1.567,0.174c0.522,0.115,0.991,0.335,1.406,0.657c0.415,0.323,0.752,0.78,1.014,1.372
				c0.261,0.591,0.392,1.37,0.392,2.338c0,0.508-0.046,1.068-0.138,1.684h-7.398c0,0.675,0.069,1.274,0.207,1.797
				c0.139,0.523,0.353,0.964,0.646,1.324c0.292,0.362,0.672,0.64,1.14,0.831c0.469,0.191,1.041,0.288,1.717,0.288
				c0.522,0,1.044-0.093,1.567-0.276c0.522-0.186,0.915-0.4,1.176-0.646L464.904,840.666z M460.94,831.4
				c-0.907,0-1.633,0.238-2.179,0.715c-0.545,0.477-0.872,1.291-0.979,2.443h5.716c0-1.169-0.223-1.986-0.669-2.455
				C462.384,831.635,461.753,831.4,460.94,831.4z"/>
			<path fill="#3E3C3C" d="M477.049,837.623c0,0.783,0.008,1.494,0.023,2.132c0.015,0.638,0.084,1.264,0.207,1.878h-1.245
				l-0.46-1.636h-0.093c-0.307,0.538-0.753,0.983-1.336,1.337c-0.584,0.353-1.268,0.529-2.052,0.529
				c-1.536,0-2.677-0.482-3.422-1.451c-0.745-0.969-1.118-2.481-1.118-4.541c0-1.967,0.464-3.459,1.395-4.481
				c0.929-1.021,2.208-1.532,3.837-1.532c0.568,0,1.018,0.031,1.349,0.092c0.33,0.062,0.688,0.16,1.072,0.3v-4.795h1.843V837.623z
				 M472.394,840.251c0.783,0,1.406-0.204,1.867-0.611c0.46-0.406,0.775-1.025,0.945-1.854v-5.716
				c-0.277-0.215-0.592-0.369-0.945-0.461c-0.354-0.093-0.823-0.139-1.406-0.139c-1.061,0-1.891,0.351-2.489,1.049
				c-0.599,0.699-0.899,1.817-0.899,3.353c0,0.631,0.05,1.214,0.15,1.752c0.099,0.539,0.265,0.999,0.495,1.383
				c0.231,0.385,0.535,0.688,0.911,0.911S471.856,840.251,472.394,840.251z"/>
			<path fill="#3E3C3C" d="M486.752,825.454h1.843v5.738h0.093c0.353-0.444,0.802-0.79,1.348-1.035
				c0.545-0.246,1.141-0.371,1.786-0.371c1.491,0,2.608,0.478,3.354,1.43c0.745,0.953,1.117,2.429,1.117,4.426
				c0,2.013-0.492,3.541-1.475,4.585c-0.984,1.046-2.366,1.568-4.148,1.568c-0.861,0-1.641-0.092-2.339-0.277
				c-0.7-0.184-1.226-0.383-1.579-0.6V825.454z M491.499,831.4c-0.769,0-1.391,0.215-1.866,0.646
				c-0.477,0.43-0.823,1.038-1.038,1.821v5.808c0.292,0.169,0.646,0.296,1.06,0.38c0.415,0.085,0.845,0.126,1.291,0.126
				c1.044,0,1.878-0.368,2.5-1.106c0.622-0.737,0.933-1.889,0.933-3.455c0-0.601-0.054-1.16-0.161-1.684
				c-0.107-0.522-0.276-0.969-0.507-1.337c-0.23-0.369-0.526-0.66-0.887-0.875C492.463,831.509,492.021,831.4,491.499,831.4z"/>
			<path fill="#3E3C3C" d="M502.318,837.531l0.648,2.212h0.115l0.509-2.235l2.244-7.444h1.843l-3.41,10.349
				c-0.262,0.752-0.519,1.482-0.772,2.189c-0.253,0.706-0.534,1.337-0.841,1.889c-0.308,0.555-0.654,0.995-1.037,1.326
				c-0.384,0.329-0.83,0.495-1.337,0.495c-0.553,0-1.006-0.077-1.359-0.229l0.323-1.592c0.199,0.077,0.392,0.117,0.576,0.117
				c0.431,0,0.845-0.229,1.245-0.681c0.399-0.454,0.729-1.233,0.991-2.34l-4.632-11.523h2.12L502.318,837.531z"/>
		</g>
	</g>
	<g>
		<path fill="#FFFFFF" d="M1824.189,228.007h-537.549c-9.123,0-16.52,7.396-16.52,16.519v223.54l-51.724,16.611l51.724,15.016
			v155.781c0,9.121,7.396,16.518,16.52,16.518h537.549c9.122,0,16.519-7.396,16.519-16.518V244.526
			C1840.708,235.404,1833.312,228.007,1824.189,228.007z"/>
		<rect x="1323.963" y="283.865" fill="none" width="486.162" height="339.404"/>
		<text transform="matrix(1 0 0 1 1323.9629 298.0732)"><tspan x="0" y="0" fill="#333333" font-family="'MyriadPro-Regular'" font-size="20.0124">This design was made by vexels.com. Its under Creative </tspan><tspan x="0" y="24.015" fill="#333333" font-family="'MyriadPro-Regular'" font-size="20.0124">Commons 3.0 Attribution License, so you can use this </tspan><tspan x="0" y="48.03" fill="#333333" font-family="'MyriadPro-Regular'" font-size="20.0124">vector (even commercially) as long as you credit us. If you </tspan><tspan x="0" y="72.045" fill="#333333" font-family="'MyriadPro-Regular'" font-size="20.0124">dont want to credit, you can buy a license. Learn more on </tspan><tspan x="0" y="96.06" fill="#C64B09" font-family="'MyriadPro-Regular'" font-size="20.0124">www.vexels.com/terms-and-conditions/</tspan><tspan x="0" y="168.104" fill="#333333" font-family="'MyriadPro-Regular'" font-size="20.0124">You cant sublicense, redistribute or resell an image or </tspan><tspan x="0" y="192.119" fill="#333333" font-family="'MyriadPro-Regular'" font-size="20.0124">part of it. You cant use our contents for products where </tspan><tspan x="0" y="216.135" fill="#333333" font-family="'MyriadPro-Regular'" font-size="20.0124">the design is the main reason its being purchased either.</tspan><tspan x="0" y="264.164" fill="#333333" font-family="'MyriadPro-Regular'" font-size="20.0124">Thanks!</tspan><tspan x="0" y="288.179" fill="#333333" font-family="'MyriadPro-Regular'" font-size="20.0124">Vexels Team</tspan></text>
	</g>
</g>
</svg>
